<svg width="220" height="40" viewBox="0 0 220 40" fill="none" xmlns="http://www.w3.org/2000/svg">
<path d="M1.85186 32.6723H7.17762C8.20037 32.6723 9.02947 31.8432 9.02947 30.8205V17.9034C9.02947 13.3774 11.4313 12.2919 12.9478 12.462C13.2456 12.4954 13.549 12.5161 13.8486 12.5061C16.4926 12.4179 17.2748 15.9799 17.156 17.9034V30.8205C17.156 31.8432 17.9851 32.6723 19.0078 32.6723H23.6564C24.6791 32.6723 25.5082 31.8432 25.5082 30.8205V17.9034C25.5082 12.8221 28.5412 12.5215 29.4377 12.5436C29.6029 12.5477 29.7682 12.5487 29.9332 12.5373C32.8604 12.335 33.8068 15.0469 33.8068 17.9034V30.8207C33.8068 31.8434 34.6359 32.6723 35.6587 32.6723H217.389C218.412 32.6723 219.241 33.5015 219.241 34.5242V37.8967C219.241 38.9194 218.412 39.7485 217.389 39.7485H1.85186C0.829104 39.7485 0 38.9194 3.32107e-06 37.8967L9.36919e-06 34.5242C1.12034e-05 33.5014 0.829114 32.6723 1.85186 32.6723Z" fill="url(#paint0_linear_3374_21194)"/>
<path d="M216.235 13.9857C214.605 13.138 213.007 12.7142 211.442 12.7142C210.627 12.7142 209.959 12.8772 209.437 13.2032C208.948 13.5292 208.704 13.9694 208.704 14.5236C208.704 14.817 208.737 15.0615 208.802 15.2571C208.9 15.4201 209.079 15.5831 209.34 15.7461C209.633 15.9091 210.041 16.0558 210.562 16.1862C211.116 16.3166 211.834 16.4796 212.714 16.6752C215.159 17.1642 216.985 18.0445 218.191 19.3159C219.397 20.5547 220 22.1522 220 24.1082C220 25.5753 219.707 26.8956 219.12 28.0692C218.533 29.2429 217.718 30.2372 216.675 31.0522C215.632 31.8346 214.376 32.4378 212.909 32.8616C211.442 33.318 209.829 33.5462 208.068 33.5462C204.678 33.5462 201.336 32.5845 198.043 30.661L201.271 24.4016C203.749 26.0969 206.096 26.9445 208.313 26.9445C209.128 26.9445 209.796 26.7652 210.318 26.4066C210.839 26.048 211.1 25.5916 211.1 25.0374C211.1 24.7113 211.051 24.4505 210.953 24.2549C210.888 24.0267 210.725 23.8311 210.464 23.6681C210.204 23.4725 209.812 23.3095 209.291 23.1791C208.802 23.0161 208.15 22.8531 207.335 22.6901C204.596 22.1359 202.673 21.3209 201.564 20.245C200.489 19.1366 199.951 17.6207 199.951 15.6972C199.951 14.2954 200.211 13.0402 200.733 11.9318C201.255 10.7908 202.004 9.82905 202.982 9.04663C203.961 8.2642 205.134 7.66109 206.503 7.23728C207.905 6.81347 209.454 6.60156 211.149 6.60156C213.92 6.60156 216.61 7.13948 219.218 8.2153L216.235 13.9857Z" fill="white"/>
<path d="M193.45 14.9149V32.6172H184.599V14.9149H181.665V7.5308H184.599V0H193.45V7.5308H198.487V14.9149H193.45Z" fill="white"/>
<path d="M153.543 7.5301H162.395V10.7087C163.601 9.24165 164.823 8.26362 166.062 7.77461C167.301 7.253 168.752 6.99219 170.414 6.99219C172.175 6.99219 173.674 7.2856 174.913 7.87241C176.185 8.42663 177.261 9.22535 178.141 10.2686C178.858 11.1162 179.347 12.0616 179.608 13.1049C179.869 14.1481 179.999 15.338 179.999 16.6746V32.6165H171.148V19.951C171.148 18.7122 171.05 17.7179 170.855 16.9681C170.692 16.1856 170.382 15.5662 169.925 15.1098C169.534 14.7186 169.094 14.4415 168.605 14.2785C168.116 14.1155 167.594 14.034 167.04 14.034C165.541 14.034 164.383 14.4904 163.568 15.4032C162.786 16.2834 162.395 17.5549 162.395 19.2175V32.6165H153.543V7.5301Z" fill="white"/>
<path d="M142.665 16.4307C142.371 15.1919 141.768 14.1976 140.856 13.4477C139.943 12.6979 138.834 12.323 137.53 12.323C136.161 12.323 135.036 12.6816 134.156 13.3988C133.308 14.1161 132.771 15.1267 132.542 16.4307H142.665ZM132.298 21.5654C132.298 25.3797 134.091 27.2868 137.677 27.2868C139.6 27.2868 141.051 26.5044 142.029 24.9395H150.587C148.859 30.6773 144.539 33.5462 137.628 33.5462C135.509 33.5462 133.569 33.2365 131.809 32.6171C130.048 31.965 128.532 31.0522 127.261 29.8786C126.022 28.705 125.06 27.3031 124.376 25.6731C123.691 24.043 123.349 22.2174 123.349 20.1961C123.349 18.1097 123.675 16.2351 124.327 14.5725C124.979 12.8772 125.908 11.4428 127.114 10.2692C128.321 9.09553 129.771 8.199 131.466 7.57959C133.194 6.92757 135.134 6.60156 137.286 6.60156C139.405 6.60156 141.312 6.92757 143.007 7.57959C144.702 8.199 146.137 9.11183 147.311 10.3181C148.484 11.5243 149.381 13.0076 150 14.7681C150.62 16.4959 150.929 18.452 150.929 20.6362V21.5654H132.298Z" fill="white"/>
<path d="M78.2527 7.52996H87.1038V10.6107C89.5163 8.29608 92.2222 7.13874 95.2214 7.13874C98.9379 7.13874 101.774 8.70359 103.73 11.8333C105.719 8.67099 108.555 7.08984 112.239 7.08984C113.413 7.08984 114.521 7.26915 115.564 7.62776C116.608 7.95376 117.504 8.49168 118.254 9.2415C119.004 9.95872 119.591 10.9041 120.014 12.0778C120.471 13.2514 120.699 14.6695 120.699 16.3322V32.6163H111.848V20.2443C111.848 18.9729 111.75 17.9296 111.554 17.1146C111.391 16.2996 111.131 15.6639 110.772 15.2075C110.446 14.751 110.055 14.4413 109.598 14.2783C109.142 14.1153 108.653 14.0338 108.131 14.0338C105.295 14.0338 103.877 16.104 103.877 20.2443V32.6163H95.0258V20.2443C95.0258 18.9729 94.9443 17.9296 94.7813 17.1146C94.6183 16.267 94.3738 15.5987 94.0478 15.1097C93.7544 14.6206 93.3632 14.2946 92.8742 14.1316C92.3852 13.936 91.8146 13.8382 91.1626 13.8382C90.6084 13.8382 90.0868 13.9197 89.5978 14.0827C89.1088 14.2457 88.6687 14.5717 88.2775 15.0608C87.9188 15.5172 87.6254 16.1692 87.3972 17.0168C87.2016 17.8318 87.1038 18.9077 87.1038 20.2443V32.6163H78.2527V7.52996Z" fill="white"/>
<path d="M54.8194 19.9516C54.8194 20.7992 54.9661 21.5817 55.2595 22.2989C55.5855 22.9835 55.993 23.5866 56.482 24.1082C57.0037 24.6298 57.6068 25.0374 58.2914 25.3308C59.0086 25.6242 59.7584 25.7709 60.5408 25.7709C61.3233 25.7709 62.0568 25.6242 62.7414 25.3308C63.4586 25.0374 64.0617 24.6298 64.5508 24.1082C65.0724 23.5866 65.4799 22.9835 65.7733 22.2989C66.0993 21.5817 66.2623 20.8155 66.2623 20.0005C66.2623 19.2181 66.0993 18.4846 65.7733 17.8C65.4799 17.0827 65.0724 16.4633 64.5508 15.9417C64.0617 15.4201 63.4586 15.0126 62.7414 14.7192C62.0568 14.4258 61.3233 14.2791 60.5408 14.2791C59.7584 14.2791 59.0086 14.4258 58.2914 14.7192C57.6068 15.0126 57.0037 15.4201 56.482 15.9417C55.993 16.4633 55.5855 17.0664 55.2595 17.7511C54.9661 18.4357 54.8194 19.1692 54.8194 19.9516ZM45.4792 19.8538C45.4792 17.9956 45.8542 16.2677 46.604 14.6703C47.3538 13.0402 48.397 11.6384 49.7337 10.4648C51.0703 9.25853 52.6514 8.31311 54.4771 7.62849C56.3353 6.94387 58.3566 6.60156 60.5408 6.60156C62.6925 6.60156 64.6812 6.94387 66.5068 7.62849C68.3651 8.2805 69.9625 9.20963 71.2991 10.4159C72.6684 11.5895 73.7279 13.0076 74.4777 14.6703C75.2275 16.3003 75.6025 18.1097 75.6025 20.0983C75.6025 22.087 75.2112 23.9126 74.4288 25.5753C73.679 27.2053 72.6358 28.6234 71.2991 29.8297C69.9625 31.0033 68.3488 31.9161 66.4579 32.5682C64.5997 33.2202 62.5784 33.5462 60.3941 33.5462C58.2425 33.5462 56.2538 33.2202 54.4282 32.5682C52.6025 31.9161 51.0214 30.987 49.6848 29.7808C48.3807 28.5745 47.3538 27.1401 46.604 25.4775C45.8542 23.7822 45.4792 21.9077 45.4792 19.8538Z" fill="white"/>
<path d="M0.383057 7.52996H9.23419V10.6107C11.6467 8.29608 14.3525 7.13874 17.3518 7.13874C21.0683 7.13874 23.9046 8.70359 25.8606 11.8333C27.8493 8.67099 30.6856 7.08984 34.3695 7.08984C35.5431 7.08984 36.6515 7.26915 37.6948 7.62776C38.738 7.95376 39.6345 8.49168 40.3843 9.2415C41.1341 9.95872 41.721 10.9041 42.1448 12.0778C42.6012 13.2514 42.8294 14.6695 42.8294 16.3322V32.6163H33.9783V20.2443C33.9783 18.9729 33.8804 17.9296 33.6848 17.1146C33.5218 16.2996 33.261 15.6639 32.9024 15.2075C32.5764 14.751 32.1852 14.4413 31.7288 14.2783C31.2724 14.1153 30.7834 14.0338 30.2618 14.0338C27.4255 14.0338 26.0073 16.104 26.0073 20.2443V32.6163H17.1562V20.2443C17.1562 18.9729 17.0747 17.9296 16.9117 17.1146C16.7487 16.267 16.5042 15.5987 16.1782 15.1097C15.8848 14.6206 15.4936 14.2946 15.0045 14.1316C14.5155 13.936 13.945 13.8382 13.293 13.8382C12.7388 13.8382 12.2172 13.9197 11.7282 14.0827C11.2391 14.2457 10.799 14.5717 10.4078 15.0608C10.0492 15.5172 9.75581 16.1692 9.5276 17.0168C9.332 17.8318 9.23419 18.9077 9.23419 20.2443V32.6163H0.383057V7.52996Z" fill="white"/>
<defs>
<linearGradient id="paint0_linear_3374_21194" x1="9.48093" y1="7.32897" x2="27.9345" y2="41.3964" gradientUnits="userSpaceOnUse">
<stop stop-color="#6F9EDF" stop-opacity="0.2"/>
<stop offset="1" stop-color="#6F9EDF"/>
</linearGradient>
</defs>
</svg>
