<svg width="147" height="48" viewBox="0 0 147 48" fill="none" xmlns="http://www.w3.org/2000/svg">
<ellipse cx="23.0556" cy="24" rx="23.0556" ry="24" fill="url(#paint0_radial_3580_4874)"/>
<path d="M139.816 31.3677C138.457 31.3677 137.254 31.1895 136.207 30.8331C135.16 30.4544 134.313 29.864 133.667 29.062C133.044 28.2601 132.665 27.2353 132.531 25.9878H136.675C136.742 26.6784 136.942 27.2019 137.276 27.5583C137.633 27.8925 138.056 28.1153 138.546 28.2266C139.036 28.338 139.493 28.3937 139.916 28.3937C140.651 28.3937 141.242 28.2601 141.687 27.9927C142.155 27.7254 142.389 27.3244 142.389 26.7898C142.389 26.2997 142.177 25.921 141.754 25.6536C141.353 25.364 140.807 25.119 140.117 24.9185C139.604 24.8071 139.025 24.6957 138.379 24.5843C137.755 24.4507 137.131 24.2947 136.508 24.1165C135.884 23.9383 135.327 23.7044 134.837 23.4148C134.325 23.1252 133.912 22.7465 133.601 22.2787C133.289 21.8108 133.133 21.2316 133.133 20.541C133.133 19.5386 133.389 18.692 133.901 18.0015C134.414 17.3109 135.149 16.7985 136.107 16.4643C137.087 16.1079 138.268 15.9297 139.649 15.9297C141.409 15.9297 142.879 16.2861 144.06 16.999C145.24 17.6896 145.964 18.848 146.232 20.4742H142.122C142.032 20.0287 141.854 19.6945 141.587 19.4717C141.342 19.2267 141.041 19.0596 140.685 18.9705C140.328 18.8591 139.95 18.8034 139.549 18.8034C138.992 18.8034 138.479 18.926 138.011 19.171C137.544 19.4161 137.31 19.7613 137.31 20.2069C137.31 20.697 137.544 21.0423 138.011 21.2428C138.502 21.421 139.081 21.5769 139.749 21.7106C140.15 21.7774 140.596 21.8665 141.086 21.9779C141.598 22.067 142.11 22.1896 142.623 22.3455C143.135 22.4792 143.614 22.6462 144.06 22.8467C144.817 23.2032 145.419 23.6821 145.864 24.2836C146.332 24.8851 146.566 25.6759 146.566 26.6561C146.566 27.7922 146.276 28.7056 145.697 29.3962C145.118 30.0868 144.316 30.588 143.291 30.8999C142.266 31.2118 141.108 31.3677 139.816 31.3677Z" fill="white"/>
<path d="M123.64 31.0007V19.5726H120.198V16.2644H123.64V10.6172H127.75V16.2644H131.192V19.5726H127.75V31.0007H123.64Z" fill="white"/>
<path d="M103.357 31.0019V16.2656H107.501V18.3374C107.991 17.6245 108.626 17.0564 109.405 16.6332C110.185 16.1876 111.076 15.9648 112.079 15.9648C113.348 15.9648 114.384 16.2322 115.186 16.7668C115.988 17.2792 116.59 18.0143 116.991 18.9723C117.392 19.9302 117.592 21.0663 117.592 22.3806V31.0019H113.449V22.3806C113.449 21.8014 113.371 21.2891 113.215 20.8435C113.059 20.398 112.803 20.0527 112.446 19.8076C112.09 19.5626 111.622 19.4401 111.043 19.4401C110.285 19.4401 109.639 19.6517 109.105 20.075C108.57 20.476 108.169 21.0329 107.902 21.7457C107.634 22.4363 107.501 23.2049 107.501 24.0514V31.0019H103.357Z" fill="white"/>
<path d="M92.1446 31.3009C90.5407 31.3009 89.1038 30.989 87.834 30.3652C86.5642 29.7192 85.5618 28.8281 84.8266 27.692C84.1138 26.5336 83.7573 25.1747 83.7573 23.6153C83.7573 22.1227 84.1138 20.7972 84.8266 19.6388C85.5618 18.4804 86.5531 17.5782 87.8006 16.9322C89.0481 16.2638 90.4627 15.9297 92.0444 15.9297C93.4924 15.9297 94.8179 16.2527 96.0209 16.8987C97.2461 17.5448 98.2263 18.447 98.9614 19.6054C99.6966 20.7638 100.064 22.1004 100.064 23.6153V24.5509H87.0989V21.9111H96.0209C95.9318 21.02 95.5196 20.2849 94.7845 19.7057C94.0716 19.1264 93.1805 18.8368 92.1112 18.8368C91.2201 18.8368 90.4627 19.0262 89.839 19.4049C89.2375 19.7613 88.7697 20.2737 88.4355 20.942C88.1236 21.6103 87.9677 22.39 87.9677 23.2811C87.9677 24.2836 88.1459 25.1524 88.5023 25.8875C88.8588 26.6227 89.3377 27.1908 89.9392 27.5917C90.563 27.9927 91.2424 28.1932 91.9776 28.1932C92.6682 28.1932 93.3031 28.1153 93.8823 27.9593C94.4837 27.7811 95.0073 27.5583 95.4528 27.291C95.9206 27.0014 96.2882 26.6895 96.5555 26.3554L99.0283 28.4606C98.5827 28.9952 97.9924 29.4853 97.2572 29.9308C96.5444 30.3541 95.7424 30.6883 94.8513 30.9333C93.9825 31.1784 93.0803 31.3009 92.1446 31.3009Z" fill="white"/>
<path d="M57.4758 30.9667V16.2638H61.6194V18.2354C62.1095 17.5448 62.6998 16.9878 63.3904 16.5646C64.081 16.1413 64.8718 15.9297 65.7629 15.9297C66.7654 15.9297 67.6565 16.1413 68.4362 16.5646C69.2381 16.9878 69.8842 17.645 70.3743 18.5361C70.998 17.645 71.7109 16.9878 72.5129 16.5646C73.3371 16.1413 74.3062 15.9297 75.42 15.9297C76.6675 15.9297 77.6923 16.2193 78.4943 16.7985C79.3185 17.3554 79.9311 18.1351 80.3321 19.1376C80.7554 20.1178 80.967 21.2316 80.967 22.4792V30.9667H76.8569V22.4792C76.8569 21.9222 76.7789 21.4099 76.623 20.942C76.467 20.4742 76.2109 20.1066 75.8544 19.8393C75.5203 19.5497 75.0413 19.4049 74.4176 19.4049C73.7938 19.4049 73.248 19.5831 72.7802 19.9396C72.3347 20.2737 71.9894 20.7081 71.7443 21.2428C71.4993 21.7774 71.3767 22.3344 71.3767 22.9136V30.9667H67.2666V22.4792C67.2666 21.9222 67.1886 21.4099 67.0327 20.942C66.8768 20.4742 66.6206 20.1066 66.2641 19.8393C65.93 19.5497 65.451 19.4049 64.8273 19.4049C64.1812 19.4049 63.6132 19.6277 63.1231 20.0732C62.6553 20.4965 62.2877 21.0311 62.0204 21.6772C61.7753 22.3009 61.6416 22.9358 61.6194 23.5819V30.9667H57.4758Z" fill="white"/>
<path d="M45.774 31.2675C44.1924 31.2675 42.7666 30.9556 41.4968 30.3318C40.227 29.6858 39.2246 28.7836 38.4894 27.6252C37.7543 26.4668 37.3867 25.1301 37.3867 23.6153C37.3867 22.1227 37.7543 20.8084 38.4894 19.6722C39.2246 18.5138 40.227 17.6005 41.4968 16.9322C42.7666 16.2638 44.1924 15.9297 45.774 15.9297C47.3557 15.9297 48.7703 16.2638 50.0178 16.9322C51.2876 17.6005 52.2901 18.5138 53.0252 19.6722C53.7827 20.8084 54.1614 22.1227 54.1614 23.6153C54.1614 25.1301 53.7938 26.4668 53.0587 27.6252C52.3235 28.7836 51.321 29.6858 50.0512 30.3318C48.7815 30.9556 47.3557 31.2675 45.774 31.2675ZM45.774 27.9259C46.6874 27.9259 47.4448 27.7254 48.0463 27.3244C48.6478 26.9012 49.0933 26.3665 49.3829 25.7205C49.6725 25.0522 49.8173 24.3504 49.8173 23.6153C49.8173 22.8579 49.6614 22.1561 49.3495 21.5101C49.0599 20.8418 48.6144 20.3071 48.0129 19.9061C47.4337 19.4829 46.6874 19.2713 45.774 19.2713C44.8607 19.2713 44.1033 19.4829 43.5018 19.9061C42.9003 20.3071 42.4436 20.8418 42.1317 21.5101C41.8421 22.1561 41.6973 22.8579 41.6973 23.6153C41.6973 24.3504 41.8421 25.0522 42.1317 25.7205C42.4213 26.3665 42.8669 26.9012 43.4684 27.3244C44.0921 27.7254 44.8607 27.9259 45.774 27.9259Z" fill="white"/>
<path d="M11.1052 30.9667V16.2638H15.2488V18.2354C15.7389 17.5448 16.3292 16.9878 17.0198 16.5646C17.7104 16.1413 18.5012 15.9297 19.3923 15.9297C20.3948 15.9297 21.2859 16.1413 22.0656 16.5646C22.8675 16.9878 23.5136 17.645 24.0037 18.5361C24.6274 17.645 25.3403 16.9878 26.1423 16.5646C26.9665 16.1413 27.9356 15.9297 29.0494 15.9297C30.2969 15.9297 31.3217 16.2193 32.1237 16.7985C32.9479 17.3554 33.5605 18.1351 33.9615 19.1376C34.3848 20.1178 34.5964 21.2316 34.5964 22.4792V30.9667H30.4863V22.4792C30.4863 21.9222 30.4083 21.4099 30.2524 20.942C30.0964 20.4742 29.8403 20.1066 29.4838 19.8393C29.1497 19.5497 28.6707 19.4049 28.047 19.4049C27.4232 19.4049 26.8774 19.5831 26.4096 19.9396C25.964 20.2737 25.6188 20.7081 25.3737 21.2428C25.1287 21.7774 25.0061 22.3344 25.0061 22.9136V30.9667H20.896V22.4792C20.896 21.9222 20.818 21.4099 20.6621 20.942C20.5062 20.4742 20.25 20.1066 19.8935 19.8393C19.5594 19.5497 19.0804 19.4049 18.4567 19.4049C17.8106 19.4049 17.2426 19.6277 16.7525 20.0732C16.2846 20.4965 15.9171 21.0311 15.6498 21.6772C15.4047 22.3009 15.271 22.9358 15.2488 23.5819V30.9667H11.1052Z" fill="white"/>
<defs>
<radialGradient id="paint0_radial_3580_4874" cx="0" cy="0" r="1" gradientUnits="userSpaceOnUse" gradientTransform="translate(-5.5 -1.5) rotate(46.6035) scale(62.2258 59.9457)">
<stop stop-color="#A4BADD"/>
<stop offset="0.445" stop-color="#56669B"/>
<stop offset="0.725" stop-color="#2F3E70"/>
<stop offset="1" stop-color="#111D44"/>
</radialGradient>
</defs>
</svg>
