<svg width="160" height="27" viewBox="0 0 160 27" fill="none" xmlns="http://www.w3.org/2000/svg">
<path d="M2.16002 8.12758H8.46588V10.3224C10.1846 8.6734 12.1124 7.84887 14.2492 7.84887C16.8969 7.84887 18.9176 8.96372 20.3111 11.1934C21.7279 8.94049 23.7486 7.81403 26.3731 7.81403C27.2093 7.81403 27.999 7.94178 28.7422 8.19726C29.4854 8.42952 30.1241 8.81275 30.6583 9.34695C31.1925 9.85792 31.6106 10.5315 31.9125 11.3676C32.2377 12.2037 32.4003 13.2141 32.4003 14.3986V26H26.0944V17.1857C26.0944 16.2799 26.0247 15.5367 25.8854 14.956C25.7693 14.3754 25.5835 13.9225 25.328 13.5973C25.0957 13.2721 24.817 13.0515 24.4918 12.9354C24.1667 12.8192 23.8183 12.7612 23.4467 12.7612C21.426 12.7612 20.4157 14.236 20.4157 17.1857V26H14.1098V17.1857C14.1098 16.2799 14.0517 15.5367 13.9356 14.956C13.8195 14.3522 13.6453 13.876 13.413 13.5276C13.204 13.1792 12.9253 12.947 12.5769 12.8309C12.2285 12.6915 11.822 12.6218 11.3575 12.6218C10.9627 12.6218 10.5911 12.6799 10.2427 12.796C9.89428 12.9121 9.58073 13.1444 9.30202 13.4928C9.04653 13.818 8.8375 14.2825 8.67492 14.8864C8.53556 15.467 8.46588 16.2335 8.46588 17.1857V26H2.16002V8.12758ZM40.9424 16.9767C40.9424 17.5806 41.0469 18.138 41.2559 18.649C41.4882 19.1367 41.7785 19.5664 42.1269 19.938C42.4985 20.3096 42.9282 20.6 43.4159 20.809C43.9269 21.018 44.4611 21.1225 45.0185 21.1225C45.576 21.1225 46.0986 21.018 46.5863 20.809C47.0973 20.6 47.527 20.3096 47.8753 19.938C48.247 19.5664 48.5373 19.1367 48.7463 18.649C48.9786 18.138 49.0947 17.5922 49.0947 17.0115C49.0947 16.4541 48.9786 15.9315 48.7463 15.4438C48.5373 14.9328 48.247 14.4915 47.8753 14.1199C47.527 13.7483 47.0973 13.458 46.5863 13.2489C46.0986 13.0399 45.576 12.9354 45.0185 12.9354C44.4611 12.9354 43.9269 13.0399 43.4159 13.2489C42.9282 13.458 42.4985 13.7483 42.1269 14.1199C41.7785 14.4915 41.4882 14.9212 41.2559 15.4089C41.0469 15.8967 40.9424 16.4193 40.9424 16.9767ZM34.2881 16.907C34.2881 15.5831 34.5552 14.3522 35.0894 13.2141C35.6236 12.0528 36.3669 11.0541 37.3191 10.2179C38.2714 9.35856 39.3978 8.68501 40.6985 8.19726C42.0224 7.70952 43.4624 7.46564 45.0185 7.46564C46.5515 7.46564 47.9682 7.70952 49.2689 8.19726C50.5928 8.66178 51.7309 9.32372 52.6831 10.1831C53.6586 11.0192 54.4135 12.0296 54.9477 13.2141C55.4819 14.3754 55.749 15.6644 55.749 17.0812C55.749 18.498 55.4702 19.7987 54.9128 20.9832C54.3786 22.1445 53.6354 23.1548 52.6831 24.0142C51.7309 24.8503 50.5812 25.5006 49.2341 25.9652C47.9102 26.4297 46.4702 26.6619 44.914 26.6619C43.3811 26.6619 41.9643 26.4297 40.6637 25.9652C39.363 25.5006 38.2365 24.8387 37.2843 23.9793C36.3552 23.12 35.6236 22.098 35.0894 20.9135C34.5552 19.7058 34.2881 18.3703 34.2881 16.907ZM57.6371 8.12758H63.9429V10.3224C65.6617 8.6734 67.5894 7.84887 69.7262 7.84887C72.374 7.84887 74.3946 8.96372 75.7882 11.1934C77.205 8.94049 79.2256 7.81403 81.8502 7.81403C82.6863 7.81403 83.476 7.94178 84.2192 8.19726C84.9625 8.42952 85.6012 8.81275 86.1354 9.34695C86.6696 9.85792 87.0877 10.5315 87.3896 11.3676C87.7148 12.2037 87.8773 13.2141 87.8773 14.3986V26H81.5715V17.1857C81.5715 16.2799 81.5018 15.5367 81.3624 14.956C81.2463 14.3754 81.0605 13.9225 80.805 13.5973C80.5728 13.2721 80.294 13.0515 79.9689 12.9354C79.6437 12.8192 79.2953 12.7612 78.9237 12.7612C76.903 12.7612 75.8927 14.236 75.8927 17.1857V26H69.5869V17.1857C69.5869 16.2799 69.5288 15.5367 69.4127 14.956C69.2965 14.3522 69.1223 13.876 68.8901 13.5276C68.681 13.1792 68.4023 12.947 68.0539 12.8309C67.7055 12.6915 67.2991 12.6218 66.8346 12.6218C66.4397 12.6218 66.0681 12.6799 65.7197 12.796C65.3713 12.9121 65.0578 13.1444 64.7791 13.4928C64.5236 13.818 64.3145 14.2825 64.152 14.8864C64.0126 15.467 63.9429 16.2335 63.9429 17.1857V26H57.6371V8.12758ZM103.527 14.4683C103.318 13.5857 102.888 12.8773 102.238 12.3431C101.587 11.8089 100.798 11.5418 99.8685 11.5418C98.893 11.5418 98.0917 11.7973 97.4646 12.3083C96.8607 12.8192 96.4775 13.5392 96.3149 14.4683H103.527ZM96.1407 18.1264C96.1407 20.8438 97.4182 22.2025 99.973 22.2025C101.343 22.2025 102.377 21.6451 103.074 20.5303H109.171C107.94 24.6181 104.862 26.6619 99.9382 26.6619C98.4285 26.6619 97.0465 26.4413 95.7923 26C94.5381 25.5355 93.4581 24.8852 92.5523 24.049C91.6697 23.2129 90.9845 22.2142 90.4968 21.0529C90.0091 19.8916 89.7652 18.5909 89.7652 17.1509C89.7652 15.6644 89.9974 14.3289 90.462 13.1444C90.9265 11.9366 91.5884 10.9147 92.4478 10.0786C93.3071 9.24243 94.3407 8.60372 95.5485 8.16242C96.7794 7.6979 98.1614 7.46564 99.6943 7.46564C101.204 7.46564 102.563 7.6979 103.77 8.16242C104.978 8.60372 106 9.25405 106.836 10.1134C107.672 10.9728 108.311 12.0296 108.752 13.2838C109.194 14.5147 109.414 15.9083 109.414 17.4644V18.1264H96.1407ZM111.277 8.12758H117.583V10.3921C118.442 9.34695 119.313 8.65017 120.196 8.30178C121.078 7.93016 122.112 7.74435 123.296 7.74435C124.551 7.74435 125.619 7.95339 126.502 8.37146C127.407 8.7663 128.174 9.33534 128.801 10.0786C129.312 10.6824 129.66 11.356 129.846 12.0992C130.032 12.8425 130.125 13.6902 130.125 14.6425V26H123.819V16.9767C123.819 16.0941 123.749 15.3857 123.61 14.8515C123.494 14.2941 123.273 13.8528 122.948 13.5276C122.669 13.2489 122.356 13.0515 122.007 12.9354C121.659 12.8192 121.287 12.7612 120.892 12.7612C119.824 12.7612 119 13.0863 118.419 13.7367C117.861 14.3638 117.583 15.2696 117.583 16.4541V26H111.277V8.12758ZM139.708 13.3883V26H133.402V13.3883H131.312V8.12758H133.402V2.76237H139.708V8.12758H143.296V13.3883H139.708ZM155.94 12.7263C154.779 12.1225 153.641 11.8205 152.526 11.8205C151.945 11.8205 151.469 11.9367 151.098 12.1689C150.749 12.4012 150.575 12.7147 150.575 13.1096C150.575 13.3186 150.598 13.4928 150.645 13.6321C150.714 13.7483 150.842 13.8644 151.028 13.9805C151.237 14.0967 151.527 14.2012 151.899 14.2941C152.294 14.387 152.805 14.5031 153.432 14.6425C155.174 14.9909 156.474 15.618 157.334 16.5238C158.193 17.4064 158.623 18.5445 158.623 19.938C158.623 20.9832 158.414 21.9238 157.996 22.76C157.578 23.5961 156.997 24.3045 156.254 24.8852C155.511 25.4426 154.616 25.8723 153.571 26.1742C152.526 26.4994 151.376 26.6619 150.122 26.6619C147.707 26.6619 145.326 25.9768 142.98 24.6064L145.28 20.147C147.045 21.3548 148.717 21.9587 150.296 21.9587C150.877 21.9587 151.353 21.8309 151.725 21.5754C152.096 21.32 152.282 20.9948 152.282 20.6C152.282 20.3677 152.247 20.1819 152.178 20.0425C152.131 19.8799 152.015 19.7406 151.829 19.6245C151.643 19.4851 151.365 19.369 150.993 19.2761C150.645 19.1599 150.18 19.0438 149.6 18.9277C147.649 18.5328 146.278 17.9522 145.489 17.1857C144.722 16.396 144.339 15.316 144.339 13.9457C144.339 12.947 144.525 12.0528 144.896 11.2631C145.268 10.4502 145.802 9.76502 146.499 9.20759C147.196 8.65017 148.032 8.22049 149.007 7.91855C150.006 7.61661 151.109 7.46564 152.317 7.46564C154.291 7.46564 156.207 7.84887 158.065 8.61533L155.94 12.7263Z" fill="white"/>
</svg>
