<svg width="257" height="83" viewBox="0 0 257 83" fill="none" xmlns="http://www.w3.org/2000/svg">
<ellipse cx="40.0179" cy="41.5" rx="40.0179" ry="41.5" fill="url(#paint0_radial_3580_4874)"/>
<g filter="url(#filter0_d_3580_4874)">
<path d="M24.06 54.884V29.364H28.12V33.424C28.8933 32.1093 29.8987 31.0073 31.136 30.118C32.3733 29.2287 33.8813 28.784 35.66 28.784C37.5933 28.784 39.2367 29.19 40.59 30.002C41.9433 30.7753 42.9873 31.9933 43.722 33.656C44.4953 32.264 45.52 31.104 46.796 30.176C48.072 29.248 49.5993 28.784 51.378 28.784C53.35 28.784 55.0127 29.19 56.366 30.002C57.7193 30.814 58.744 31.974 59.44 33.482C60.136 34.99 60.484 36.8073 60.484 38.934V54.884H56.424V38.934C56.424 37.7353 56.25 36.6913 55.902 35.802C55.554 34.874 54.9933 34.1587 54.22 33.656C53.4853 33.1147 52.4993 32.844 51.262 32.844C50.218 32.844 49.1933 33.134 48.188 33.714C47.2213 34.2553 46.4093 34.99 45.752 35.918C45.0947 36.8073 44.766 37.8127 44.766 38.934V54.884H40.706V38.934C40.706 37.7353 40.532 36.6913 40.184 35.802C39.836 34.874 39.2753 34.1587 38.502 33.656C37.7673 33.1147 36.7813 32.844 35.544 32.844C34.1133 32.844 32.8567 33.2693 31.774 34.12C30.73 34.9707 29.8987 36.0727 29.28 37.426C28.6613 38.7793 28.2747 40.2487 28.12 41.834V54.884H24.06ZM79.6131 55.406C77.1771 55.406 74.9345 54.826 72.8851 53.666C70.8745 52.4673 69.2698 50.8627 68.0711 48.852C66.8725 46.8413 66.2731 44.5987 66.2731 42.124C66.2731 39.6493 66.8725 37.4067 68.0711 35.396C69.2698 33.3853 70.8745 31.7807 72.8851 30.582C74.8958 29.3833 77.1385 28.784 79.6131 28.784C82.0878 28.784 84.3305 29.3833 86.3411 30.582C88.3518 31.7807 89.9565 33.3853 91.1551 35.396C92.3538 37.4067 92.9531 39.6493 92.9531 42.124C92.9531 44.5987 92.3538 46.8413 91.1551 48.852C89.9565 50.8627 88.3325 52.4673 86.2831 53.666C84.2725 54.826 82.0491 55.406 79.6131 55.406ZM79.6131 51.346C81.3145 51.346 82.8611 50.94 84.2531 50.128C85.6838 49.2773 86.8051 48.156 87.6171 46.764C88.4678 45.372 88.8931 43.8253 88.8931 42.124C88.8931 40.384 88.4678 38.818 87.6171 37.426C86.8051 36.034 85.7031 34.932 84.3111 34.12C82.9191 33.2693 81.3531 32.844 79.6131 32.844C77.9118 32.844 76.3458 33.2693 74.9151 34.12C73.5231 34.932 72.4018 36.034 71.5511 37.426C70.7391 38.818 70.3331 40.384 70.3331 42.124C70.3331 43.8253 70.7391 45.372 71.5511 46.764C72.4018 48.156 73.5231 49.2773 74.9151 50.128C76.3458 50.94 77.9118 51.346 79.6131 51.346ZM99.3354 54.884V29.364H103.395V33.424C104.169 32.1093 105.174 31.0073 106.411 30.118C107.649 29.2287 109.157 28.784 110.935 28.784C112.869 28.784 114.512 29.19 115.865 30.002C117.219 30.7753 118.263 31.9933 118.997 33.656C119.771 32.264 120.795 31.104 122.071 30.176C123.347 29.248 124.875 28.784 126.653 28.784C128.625 28.784 130.288 29.19 131.641 30.002C132.995 30.814 134.019 31.974 134.715 33.482C135.411 34.99 135.759 36.8073 135.759 38.934V54.884H131.699V38.934C131.699 37.7353 131.525 36.6913 131.177 35.802C130.829 34.874 130.269 34.1587 129.495 33.656C128.761 33.1147 127.775 32.844 126.537 32.844C125.493 32.844 124.469 33.134 123.463 33.714C122.497 34.2553 121.685 34.99 121.027 35.918C120.37 36.8073 120.041 37.8127 120.041 38.934V54.884H115.981V38.934C115.981 37.7353 115.807 36.6913 115.459 35.802C115.111 34.874 114.551 34.1587 113.777 33.656C113.043 33.1147 112.057 32.844 110.819 32.844C109.389 32.844 108.132 33.2693 107.049 34.12C106.005 34.9707 105.174 36.0727 104.555 37.426C103.937 38.7793 103.55 40.2487 103.395 41.834V54.884H99.3354ZM155.527 55.406C152.975 55.406 150.635 54.8647 148.509 53.782C146.421 52.6607 144.739 51.114 143.463 49.142C142.187 47.1313 141.549 44.792 141.549 42.124C141.549 39.6493 142.148 37.4067 143.347 35.396C144.545 33.3853 146.15 31.7807 148.161 30.582C150.171 29.3833 152.414 28.784 154.889 28.784C157.286 28.784 159.49 29.3833 161.501 30.582C163.511 31.7807 165.135 33.366 166.373 35.338C167.61 37.31 168.229 39.4947 168.229 41.892V43.516H144.101V39.746H163.937C163.473 37.8127 162.39 36.1887 160.689 34.874C159.026 33.5207 157.093 32.844 154.889 32.844C153.071 32.844 151.467 33.2693 150.075 34.12C148.721 34.9707 147.658 36.1307 146.885 37.6C146.111 39.0307 145.725 40.6547 145.725 42.472C145.725 44.2507 146.169 45.8167 147.059 47.17C147.948 48.4847 149.089 49.5093 150.481 50.244C151.873 50.9787 153.342 51.346 154.889 51.346C156.087 51.346 157.189 51.2107 158.195 50.94C159.239 50.6693 160.186 50.2633 161.037 49.722C161.926 49.1807 162.719 48.4847 163.415 47.634L166.489 50.186C165.638 51.2687 164.594 52.216 163.357 53.028C162.158 53.8013 160.882 54.4007 159.529 54.826C158.175 55.2127 156.841 55.406 155.527 55.406ZM174.611 55V29.48H178.671V33.888C179.483 32.496 180.585 31.336 181.977 30.408C183.369 29.4413 185.012 28.958 186.907 28.958C188.917 28.958 190.619 29.364 192.011 30.176C193.403 30.9493 194.466 32.09 195.201 33.598C195.935 35.0673 196.303 36.8847 196.303 39.05V55H192.243V39.05C192.243 38.0447 192.088 37.078 191.779 36.15C191.508 35.222 191.005 34.468 190.271 33.888C189.575 33.308 188.608 33.018 187.371 33.018C185.283 33.018 183.601 33.5207 182.325 34.526C181.049 35.5313 180.121 36.904 179.541 38.644C178.961 40.3453 178.671 42.24 178.671 44.328V55H174.611ZM207.607 55V33.25H201.227V29.48H207.607V19.562H211.667V29.48H217.989V33.25H211.667V55H207.607ZM230.639 55.754C228.667 55.754 226.966 55.464 225.535 54.884C224.143 54.304 223.022 53.434 222.171 52.274C221.321 51.0753 220.741 49.606 220.431 47.866H224.723C225.033 48.9873 225.477 49.896 226.057 50.592C226.637 51.2493 227.333 51.7133 228.145 51.984C228.957 52.2547 229.866 52.39 230.871 52.39C232.727 52.39 234.119 52.042 235.047 51.346C235.975 50.65 236.439 49.606 236.439 48.214C236.439 47.402 236.111 46.6867 235.453 46.068C234.796 45.4493 233.791 44.9273 232.437 44.502C231.857 44.3087 231.123 44.096 230.233 43.864C229.383 43.632 228.513 43.3807 227.623 43.11C226.734 42.8393 225.922 42.5493 225.187 42.24C223.989 41.66 223.022 40.906 222.287 39.978C221.591 39.05 221.243 37.9287 221.243 36.614C221.243 34.874 221.669 33.4433 222.519 32.322C223.37 31.162 224.472 30.3113 225.825 29.77C227.217 29.19 228.706 28.9 230.291 28.9C232.689 28.9 234.719 29.4027 236.381 30.408C238.044 31.3747 239.165 33.1727 239.745 35.802H235.395C235.125 34.9127 234.757 34.2167 234.293 33.714C233.829 33.1727 233.249 32.8053 232.553 32.612C231.896 32.38 231.103 32.264 230.175 32.264C229.015 32.264 227.952 32.5153 226.985 33.018C226.019 33.5207 225.535 34.3907 225.535 35.628C225.535 36.8653 225.961 37.7547 226.811 38.296C227.662 38.7987 228.551 39.2047 229.479 39.514C229.943 39.63 230.601 39.804 231.451 40.036C232.341 40.2293 233.269 40.4807 234.235 40.79C235.202 41.0607 236.053 41.37 236.787 41.718C238.102 42.3367 239.088 43.1487 239.745 44.154C240.403 45.1593 240.731 46.3387 240.731 47.692C240.731 49.5867 240.267 51.1333 239.339 52.332C238.45 53.492 237.232 54.362 235.685 54.942C234.177 55.4833 232.495 55.754 230.639 55.754Z" fill="white"/>
<path d="M24.06 54.884V29.364H28.12V33.424C28.8933 32.1093 29.8987 31.0073 31.136 30.118C32.3733 29.2287 33.8813 28.784 35.66 28.784C37.5933 28.784 39.2367 29.19 40.59 30.002C41.9433 30.7753 42.9873 31.9933 43.722 33.656C44.4953 32.264 45.52 31.104 46.796 30.176C48.072 29.248 49.5993 28.784 51.378 28.784C53.35 28.784 55.0127 29.19 56.366 30.002C57.7193 30.814 58.744 31.974 59.44 33.482C60.136 34.99 60.484 36.8073 60.484 38.934V54.884H56.424V38.934C56.424 37.7353 56.25 36.6913 55.902 35.802C55.554 34.874 54.9933 34.1587 54.22 33.656C53.4853 33.1147 52.4993 32.844 51.262 32.844C50.218 32.844 49.1933 33.134 48.188 33.714C47.2213 34.2553 46.4093 34.99 45.752 35.918C45.0947 36.8073 44.766 37.8127 44.766 38.934V54.884H40.706V38.934C40.706 37.7353 40.532 36.6913 40.184 35.802C39.836 34.874 39.2753 34.1587 38.502 33.656C37.7673 33.1147 36.7813 32.844 35.544 32.844C34.1133 32.844 32.8567 33.2693 31.774 34.12C30.73 34.9707 29.8987 36.0727 29.28 37.426C28.6613 38.7793 28.2747 40.2487 28.12 41.834V54.884H24.06ZM79.6131 55.406C77.1771 55.406 74.9345 54.826 72.8851 53.666C70.8745 52.4673 69.2698 50.8627 68.0711 48.852C66.8725 46.8413 66.2731 44.5987 66.2731 42.124C66.2731 39.6493 66.8725 37.4067 68.0711 35.396C69.2698 33.3853 70.8745 31.7807 72.8851 30.582C74.8958 29.3833 77.1385 28.784 79.6131 28.784C82.0878 28.784 84.3305 29.3833 86.3411 30.582C88.3518 31.7807 89.9565 33.3853 91.1551 35.396C92.3538 37.4067 92.9531 39.6493 92.9531 42.124C92.9531 44.5987 92.3538 46.8413 91.1551 48.852C89.9565 50.8627 88.3325 52.4673 86.2831 53.666C84.2725 54.826 82.0491 55.406 79.6131 55.406ZM79.6131 51.346C81.3145 51.346 82.8611 50.94 84.2531 50.128C85.6838 49.2773 86.8051 48.156 87.6171 46.764C88.4678 45.372 88.8931 43.8253 88.8931 42.124C88.8931 40.384 88.4678 38.818 87.6171 37.426C86.8051 36.034 85.7031 34.932 84.3111 34.12C82.9191 33.2693 81.3531 32.844 79.6131 32.844C77.9118 32.844 76.3458 33.2693 74.9151 34.12C73.5231 34.932 72.4018 36.034 71.5511 37.426C70.7391 38.818 70.3331 40.384 70.3331 42.124C70.3331 43.8253 70.7391 45.372 71.5511 46.764C72.4018 48.156 73.5231 49.2773 74.9151 50.128C76.3458 50.94 77.9118 51.346 79.6131 51.346ZM99.3354 54.884V29.364H103.395V33.424C104.169 32.1093 105.174 31.0073 106.411 30.118C107.649 29.2287 109.157 28.784 110.935 28.784C112.869 28.784 114.512 29.19 115.865 30.002C117.219 30.7753 118.263 31.9933 118.997 33.656C119.771 32.264 120.795 31.104 122.071 30.176C123.347 29.248 124.875 28.784 126.653 28.784C128.625 28.784 130.288 29.19 131.641 30.002C132.995 30.814 134.019 31.974 134.715 33.482C135.411 34.99 135.759 36.8073 135.759 38.934V54.884H131.699V38.934C131.699 37.7353 131.525 36.6913 131.177 35.802C130.829 34.874 130.269 34.1587 129.495 33.656C128.761 33.1147 127.775 32.844 126.537 32.844C125.493 32.844 124.469 33.134 123.463 33.714C122.497 34.2553 121.685 34.99 121.027 35.918C120.37 36.8073 120.041 37.8127 120.041 38.934V54.884H115.981V38.934C115.981 37.7353 115.807 36.6913 115.459 35.802C115.111 34.874 114.551 34.1587 113.777 33.656C113.043 33.1147 112.057 32.844 110.819 32.844C109.389 32.844 108.132 33.2693 107.049 34.12C106.005 34.9707 105.174 36.0727 104.555 37.426C103.937 38.7793 103.55 40.2487 103.395 41.834V54.884H99.3354ZM155.527 55.406C152.975 55.406 150.635 54.8647 148.509 53.782C146.421 52.6607 144.739 51.114 143.463 49.142C142.187 47.1313 141.549 44.792 141.549 42.124C141.549 39.6493 142.148 37.4067 143.347 35.396C144.545 33.3853 146.15 31.7807 148.161 30.582C150.171 29.3833 152.414 28.784 154.889 28.784C157.286 28.784 159.49 29.3833 161.501 30.582C163.511 31.7807 165.135 33.366 166.373 35.338C167.61 37.31 168.229 39.4947 168.229 41.892V43.516H144.101V39.746H163.937C163.473 37.8127 162.39 36.1887 160.689 34.874C159.026 33.5207 157.093 32.844 154.889 32.844C153.071 32.844 151.467 33.2693 150.075 34.12C148.721 34.9707 147.658 36.1307 146.885 37.6C146.111 39.0307 145.725 40.6547 145.725 42.472C145.725 44.2507 146.169 45.8167 147.059 47.17C147.948 48.4847 149.089 49.5093 150.481 50.244C151.873 50.9787 153.342 51.346 154.889 51.346C156.087 51.346 157.189 51.2107 158.195 50.94C159.239 50.6693 160.186 50.2633 161.037 49.722C161.926 49.1807 162.719 48.4847 163.415 47.634L166.489 50.186C165.638 51.2687 164.594 52.216 163.357 53.028C162.158 53.8013 160.882 54.4007 159.529 54.826C158.175 55.2127 156.841 55.406 155.527 55.406ZM174.611 55V29.48H178.671V33.888C179.483 32.496 180.585 31.336 181.977 30.408C183.369 29.4413 185.012 28.958 186.907 28.958C188.917 28.958 190.619 29.364 192.011 30.176C193.403 30.9493 194.466 32.09 195.201 33.598C195.935 35.0673 196.303 36.8847 196.303 39.05V55H192.243V39.05C192.243 38.0447 192.088 37.078 191.779 36.15C191.508 35.222 191.005 34.468 190.271 33.888C189.575 33.308 188.608 33.018 187.371 33.018C185.283 33.018 183.601 33.5207 182.325 34.526C181.049 35.5313 180.121 36.904 179.541 38.644C178.961 40.3453 178.671 42.24 178.671 44.328V55H174.611ZM207.607 55V33.25H201.227V29.48H207.607V19.562H211.667V29.48H217.989V33.25H211.667V55H207.607ZM230.639 55.754C228.667 55.754 226.966 55.464 225.535 54.884C224.143 54.304 223.022 53.434 222.171 52.274C221.321 51.0753 220.741 49.606 220.431 47.866H224.723C225.033 48.9873 225.477 49.896 226.057 50.592C226.637 51.2493 227.333 51.7133 228.145 51.984C228.957 52.2547 229.866 52.39 230.871 52.39C232.727 52.39 234.119 52.042 235.047 51.346C235.975 50.65 236.439 49.606 236.439 48.214C236.439 47.402 236.111 46.6867 235.453 46.068C234.796 45.4493 233.791 44.9273 232.437 44.502C231.857 44.3087 231.123 44.096 230.233 43.864C229.383 43.632 228.513 43.3807 227.623 43.11C226.734 42.8393 225.922 42.5493 225.187 42.24C223.989 41.66 223.022 40.906 222.287 39.978C221.591 39.05 221.243 37.9287 221.243 36.614C221.243 34.874 221.669 33.4433 222.519 32.322C223.37 31.162 224.472 30.3113 225.825 29.77C227.217 29.19 228.706 28.9 230.291 28.9C232.689 28.9 234.719 29.4027 236.381 30.408C238.044 31.3747 239.165 33.1727 239.745 35.802H235.395C235.125 34.9127 234.757 34.2167 234.293 33.714C233.829 33.1727 233.249 32.8053 232.553 32.612C231.896 32.38 231.103 32.264 230.175 32.264C229.015 32.264 227.952 32.5153 226.985 33.018C226.019 33.5207 225.535 34.3907 225.535 35.628C225.535 36.8653 225.961 37.7547 226.811 38.296C227.662 38.7987 228.551 39.2047 229.479 39.514C229.943 39.63 230.601 39.804 231.451 40.036C232.341 40.2293 233.269 40.4807 234.235 40.79C235.202 41.0607 236.053 41.37 236.787 41.718C238.102 42.3367 239.088 43.1487 239.745 44.154C240.403 45.1593 240.731 46.3387 240.731 47.692C240.731 49.5867 240.267 51.1333 239.339 52.332C238.45 53.492 237.232 54.362 235.685 54.942C234.177 55.4833 232.495 55.754 230.639 55.754Z" fill="url(#paint1_linear_3580_4874)"/>
</g>
<defs>
<filter id="filter0_d_3580_4874" x="8.06006" y="7.5625" width="248.671" height="68.1914" filterUnits="userSpaceOnUse" color-interpolation-filters="sRGB">
<feFlood flood-opacity="0" result="BackgroundImageFix"/>
<feColorMatrix in="SourceAlpha" type="matrix" values="0 0 0 0 0 0 0 0 0 0 0 0 0 0 0 0 0 0 127 0" result="hardAlpha"/>
<feOffset dy="4"/>
<feGaussianBlur stdDeviation="8"/>
<feComposite in2="hardAlpha" operator="out"/>
<feColorMatrix type="matrix" values="0 0 0 0 0 0 0 0 0 0 0 0 0 0 0 0 0 0 0.02 0"/>
<feBlend mode="normal" in2="BackgroundImageFix" result="effect1_dropShadow_3580_4874"/>
<feBlend mode="normal" in="SourceGraphic" in2="effect1_dropShadow_3580_4874" result="shape"/>
</filter>
<radialGradient id="paint0_radial_3580_4874" cx="0" cy="0" r="1" gradientUnits="userSpaceOnUse" gradientTransform="translate(18.5268 15.8404) rotate(52.3285) scale(75.4855 72.7896)">
<stop stop-color="#A4BADD"/>
<stop offset="0.445" stop-color="#56669B"/>
<stop offset="0.725" stop-color="#2F3E70"/>
<stop offset="1" stop-color="#111D44"/>
</radialGradient>
<linearGradient id="paint1_linear_3580_4874" x1="8.5" y1="12.5" x2="245" y2="109.5" gradientUnits="userSpaceOnUse">
<stop stop-color="white"/>
<stop offset="1" stop-color="#899EC6" stop-opacity="0.3"/>
</linearGradient>
</defs>
</svg>
