<svg width="400" height="400" viewBox="0 0 400 400" fill="none" xmlns="http://www.w3.org/2000/svg">
<rect width="400" height="400" fill="#010304"/>
<path d="M60.0001 261.001H116C117.105 261.001 118 260.106 118 259.001V171.256C118 141.308 136.925 136.15 146.57 138.638C146.858 138.713 147.161 138.729 147.455 138.686C167.089 135.861 172.827 159.017 172 171.256V259.001C172 260.106 172.896 261.001 174 261.001H225.5C226.605 261.001 227.5 260.106 227.5 259.001V171.256C227.5 136.962 252.362 138.504 255.021 138.767C255.183 138.783 255.337 138.783 255.5 138.766C276.053 136.64 282.644 153.488 282.644 171.256V259.002C282.644 260.106 283.539 261.001 284.644 261.001H339.5C340.605 261.001 341.5 261.896 341.5 263.001V302C341.5 303.105 340.605 304 339.5 304H60C58.8954 304 58 303.105 58 302L58.0001 263.001C58.0001 261.896 58.8955 261.001 60.0001 261.001Z" fill="url(#paint0_linear_3801_16307)"/>
<g filter="url(#filter0_d_3801_16307)">
<path d="M61 99.88C61 98.7754 61.8954 97.88 63 97.88H116.92C118.025 97.88 118.92 98.7754 118.92 99.88V113.349C118.92 115.111 121.053 116.029 122.379 114.869C137.281 101.836 153.834 95.32 172.04 95.32C195.277 95.32 213.255 104.668 225.976 123.365C226.806 124.585 228.638 124.587 229.47 123.368C242.378 104.456 260.354 95 283.4 95C291.08 95 298.333 96.1733 305.16 98.52C311.987 100.653 317.853 104.173 322.76 109.08C327.667 113.773 331.507 119.96 334.28 127.64C337.267 135.32 338.76 144.6 338.76 155.48V260.04C338.76 261.145 337.865 262.04 336.76 262.04H282.84C281.735 262.04 280.84 261.145 280.84 260.04V181.08C280.84 172.76 280.2 165.933 278.92 160.6C277.853 155.267 276.147 151.107 273.8 148.12C271.667 145.133 269.107 143.107 266.12 142.04C263.133 140.973 259.933 140.44 256.52 140.44C237.96 140.44 228.68 153.987 228.68 181.08V260.04C228.68 261.145 227.785 262.04 226.68 262.04H172.76C171.655 262.04 170.76 261.145 170.76 260.04V181.08C170.76 172.76 170.227 165.933 169.16 160.6C168.093 155.053 166.493 150.68 164.36 147.48C162.44 144.28 159.88 142.147 156.68 141.08C153.48 139.8 149.747 139.16 145.48 139.16C141.853 139.16 138.44 139.693 135.24 140.76C132.04 141.827 129.16 143.96 126.6 147.16C124.253 150.147 122.333 154.413 120.84 159.96C119.56 165.293 118.92 172.333 118.92 181.08V260.04C118.92 261.145 118.025 262.04 116.92 262.04H63C61.8954 262.04 61 261.145 61 260.04V99.88Z" fill="white"/>
</g>
<defs>
<filter id="filter0_d_3801_16307" x="57" y="95" width="285.76" height="175.04" filterUnits="userSpaceOnUse" color-interpolation-filters="sRGB">
<feFlood flood-opacity="0" result="BackgroundImageFix"/>
<feColorMatrix in="SourceAlpha" type="matrix" values="0 0 0 0 0 0 0 0 0 0 0 0 0 0 0 0 0 0 127 0" result="hardAlpha"/>
<feOffset dy="4"/>
<feGaussianBlur stdDeviation="2"/>
<feComposite in2="hardAlpha" operator="out"/>
<feColorMatrix type="matrix" values="0 0 0 0 0 0 0 0 0 0 0 0 0 0 0 0 0 0 0.25 0"/>
<feBlend mode="normal" in2="BackgroundImageFix" result="effect1_dropShadow_3801_16307"/>
<feBlend mode="normal" in="SourceGraphic" in2="effect1_dropShadow_3801_16307" result="shape"/>
</filter>
<linearGradient id="paint0_linear_3801_16307" x1="121" y1="107" x2="227.5" y2="322" gradientUnits="userSpaceOnUse">
<stop stop-color="#6F9EDF" stop-opacity="0.2"/>
<stop offset="1" stop-color="#6F9EDF"/>
</linearGradient>
</defs>
</svg>
