<svg width="52" height="37" viewBox="0 0 52 37" fill="none" xmlns="http://www.w3.org/2000/svg">
<path d="M1.35275 29.3877H11.2293C11.4241 29.3877 11.582 29.2298 11.582 29.0349V13.4996C11.582 8.19793 14.9194 7.28458 16.6206 7.72497C16.6715 7.73814 16.7252 7.741 16.7772 7.73349C20.2397 7.2335 21.2517 11.3328 21.1058 13.4996V29.0349C21.1058 29.2298 21.2638 29.3877 21.4586 29.3877H30.5415C30.7363 29.3877 30.8942 29.2298 30.8942 29.0349V13.4996C30.8942 7.42901 35.2778 7.70119 35.7477 7.7478C35.7765 7.75065 35.8038 7.75059 35.8326 7.74761C39.4574 7.37136 40.6197 10.354 40.6197 13.4996V29.0351C40.6197 29.2299 40.7776 29.3877 40.9724 29.3877H50.6473C50.8421 29.3877 51 29.5456 51 29.7404V36.6473C51 36.8421 50.8421 37.0001 50.6473 37.0001H1.35273C1.15792 37.0001 1 36.8421 1 36.6473L1.00001 29.7404C1.00001 29.5456 1.15794 29.3877 1.35275 29.3877Z" fill="url(#paint0_linear_3197_21109)"/>
<g filter="url(#filter0_d_3197_21109)">
<path d="M1.5293 0.862599C1.5293 0.66779 1.68722 0.509865 1.88203 0.509865H11.3917C11.5865 0.509865 11.7445 0.667789 11.7445 0.862599V3.24948C11.7445 3.56054 12.1213 3.72229 12.3551 3.51708C14.9831 1.21013 17.9024 0.0566509 21.1131 0.0566509C25.2111 0.0566509 28.3818 1.71145 30.6252 5.02106C30.7715 5.23691 31.0956 5.23733 31.2422 5.02169C33.5186 1.6739 36.689 0 40.7533 0C42.1078 0 43.387 0.207722 44.591 0.623167C45.795 1.00084 46.8297 1.62401 47.6951 2.49267C48.5604 3.32356 49.2377 4.41883 49.7268 5.77847C50.2536 7.13811 50.5169 8.78101 50.5169 10.7072V29.2194C50.5169 29.4142 50.359 29.5722 50.1642 29.5722H40.6545C40.4597 29.5722 40.3018 29.4142 40.3018 29.2194V15.2393C40.3018 13.7664 40.1889 12.5578 39.9632 11.6136C39.775 10.6694 39.474 9.93292 39.0602 9.40418C38.6839 8.87543 38.2324 8.51663 37.7057 8.32779C37.1789 8.13895 36.6145 8.04453 36.0125 8.04453C32.7392 8.04453 31.1025 10.4428 31.1025 15.2393V29.2194C31.1025 29.4142 30.9446 29.5722 30.7497 29.5722H21.2401C21.0452 29.5722 20.8873 29.4142 20.8873 29.2194V15.2393C20.8873 13.7664 20.7933 12.5578 20.6051 11.6136C20.417 10.6316 20.1348 9.85739 19.7586 9.29087C19.4199 8.72436 18.9684 8.34668 18.4041 8.15784C17.8397 7.93123 17.1813 7.81793 16.4288 7.81793C15.7891 7.81793 15.1871 7.91235 14.6228 8.10119C14.0584 8.29003 13.5505 8.6677 13.099 9.23422C12.6851 9.76297 12.3465 10.5183 12.0831 11.5003C11.8573 12.4445 11.7445 13.6908 11.7445 15.2393V29.2194C11.7445 29.4142 11.5865 29.5722 11.3917 29.5722H1.88203C1.68722 29.5722 1.5293 29.4142 1.5293 29.2194V0.862599Z" fill="white"/>
</g>
<defs>
<filter id="filter0_d_3197_21109" x="0.82383" y="0" width="50.3987" height="30.9832" filterUnits="userSpaceOnUse" color-interpolation-filters="sRGB">
<feFlood flood-opacity="0" result="BackgroundImageFix"/>
<feColorMatrix in="SourceAlpha" type="matrix" values="0 0 0 0 0 0 0 0 0 0 0 0 0 0 0 0 0 0 127 0" result="hardAlpha"/>
<feOffset dy="0.705467"/>
<feGaussianBlur stdDeviation="0.352734"/>
<feComposite in2="hardAlpha" operator="out"/>
<feColorMatrix type="matrix" values="0 0 0 0 0 0 0 0 0 0 0 0 0 0 0 0 0 0 0.25 0"/>
<feBlend mode="normal" in2="BackgroundImageFix" result="effect1_dropShadow_3197_21109"/>
<feBlend mode="normal" in="SourceGraphic" in2="effect1_dropShadow_3197_21109" result="shape"/>
</filter>
<linearGradient id="paint0_linear_3197_21109" x1="12.1111" y1="2.1239" x2="31.0087" y2="40.1298" gradientUnits="userSpaceOnUse">
<stop stop-color="#6F9EDF" stop-opacity="0.2"/>
<stop offset="1" stop-color="#6F9EDF"/>
</linearGradient>
</defs>
</svg>
